<svg width="500" height="105" viewBox="0 0 500 105" fill="none" xmlns="http://www.w3.org/2000/svg">
<path d="M130.842 81.7567C128.317 81.3581 126.04 80.7697 123.971 80.0295V71.2608C128.868 72.8551 133.499 73.6333 137.883 73.6333C141.698 73.6333 144.526 72.893 146.405 71.4126C148.265 69.9322 149.195 67.7874 149.195 64.9404C149.195 63.3461 148.911 62.0175 148.341 60.9166C147.772 59.8158 146.823 58.8478 145.494 57.9937C144.166 57.1396 142.362 56.3235 140.047 55.5453L136.327 54.2926C127.235 51.1989 122.68 45.4289 122.68 37.0208C122.68 33.2627 123.496 30.0361 125.148 27.341C126.799 24.6458 129.247 22.577 132.512 21.1345C135.776 19.711 139.819 18.9897 144.602 18.9897C146.766 18.9897 148.93 19.1226 151.055 19.4073C153.181 19.692 155.06 20.0716 156.673 20.5841V29.3149C153.314 28.252 149.575 27.7206 145.475 27.7206C137.181 27.7206 133.024 30.5676 133.024 36.2426C133.024 37.78 133.29 39.0516 133.802 40.0766C134.315 41.1015 135.188 42.0315 136.384 42.8287C137.598 43.6448 139.269 44.404 141.413 45.1252L145.134 46.3779C149.86 47.9723 153.447 50.1739 155.895 53.002C158.325 55.83 159.558 59.5121 159.558 64.0483C159.558 67.8633 158.723 71.1469 157.034 73.88C155.345 76.6131 152.896 78.7199 149.67 80.1814C146.443 81.6428 142.552 82.3641 138.016 82.3641C135.757 82.3641 133.366 82.1743 130.842 81.7567Z" fill="#1B1A21"/>
<path d="M166.448 29.9226C165.518 29.0496 165.063 27.8159 165.063 26.2215C165.063 24.6272 165.518 23.3935 166.448 22.5014C167.378 21.6284 168.745 21.1729 170.548 21.1729C172.351 21.1729 173.737 21.6284 174.667 22.5204C175.597 23.4125 176.071 24.6462 176.071 26.2215C176.071 27.8159 175.616 29.0496 174.686 29.9226C173.756 30.7957 172.389 31.2323 170.548 31.2323C168.745 31.2323 167.378 30.7957 166.448 29.9226Z" fill="#1B1A21"/>
<path d="M175.976 36.0156H165.822V81.5677H175.976V36.0156Z" fill="#1B1A21"/>
<path d="M184.972 36.0152H193.4L194.159 40.8931H194.709C196.152 39.09 197.86 37.7044 199.815 36.7364C201.77 35.7685 203.933 35.2939 206.306 35.2939C210.178 35.2939 213.253 36.5087 215.511 38.9381C217.77 41.3676 218.909 45.2964 218.909 50.6868V81.5483H208.811V51.4649C208.811 48.9026 208.299 47.0806 207.274 45.9987C206.249 44.9168 204.788 44.3664 202.89 44.3664C201.447 44.3664 199.986 44.727 198.543 45.4293C197.101 46.1315 195.943 47.2134 195.07 48.6749V81.5863H184.972V36.0152Z" fill="#1B1A21"/>
<path d="M239.711 92.6517C243.583 92.6517 246.43 91.7597 248.271 89.9755C250.112 88.1914 251.024 85.1926 251.024 80.96V76.9552H250.53C249.562 78.5496 248.214 79.8022 246.525 80.7512C244.836 81.7002 242.9 82.1747 240.717 82.1747C237.984 82.1747 235.498 81.4155 233.239 79.8971C230.981 78.3787 229.159 75.9303 227.792 72.5709C226.406 69.2114 225.723 64.9029 225.723 59.6644C225.723 51.541 227.545 45.4484 231.17 41.4246C234.796 37.3819 240.3 35.351 247.683 35.332C249.961 35.332 252.314 35.5218 254.744 35.9204C257.173 36.319 259.299 36.8315 261.14 37.5147V79.3088C261.14 86.8438 259.432 92.3291 256.053 95.7265C252.656 99.1239 247.493 100.813 240.566 100.813C240.205 100.813 240.072 100.813 239.711 100.794V92.6517ZM248.309 72.7796C249.467 72.2102 250.378 71.4131 251.042 70.4261V43.7022C249.657 43.3985 248.252 43.2467 246.867 43.2467C243.28 43.2467 240.585 44.4235 238.781 46.796C236.978 49.1685 236.086 53.1353 236.086 58.7344C236.086 62.6253 236.428 65.6811 237.13 67.8638C237.832 70.0465 238.8 71.5649 240.034 72.4C241.268 73.2351 242.843 73.6527 244.741 73.6527C245.956 73.6527 247.152 73.368 248.309 72.7796Z" fill="#1B1A21"/>
<path d="M270.155 81.5863V14.0933H280.253V81.5673H270.155V81.5863Z" fill="#1B1A21"/>
<path d="M321.477 62.0368H297.638C297.752 65.1306 298.208 67.541 299.024 69.3062C299.84 71.0523 301.074 72.305 302.744 73.0642C304.414 73.8234 306.635 74.184 309.425 74.184C312.291 74.184 315.612 73.6526 319.37 72.5897V80.8081C317.34 81.3585 315.442 81.776 313.676 82.0228C311.911 82.2695 310.089 82.4024 308.229 82.4024C303.389 82.4024 299.441 81.6052 296.386 79.9919C293.33 78.3786 291.071 75.8543 289.591 72.3999C288.11 68.9266 287.37 64.3524 287.37 58.6394C287.37 50.8386 288.908 45.0117 291.982 41.1208C295.057 37.2299 299.403 35.2939 305.041 35.2939C316.011 35.2939 321.496 43.1707 321.496 58.9241V62.0368H321.477ZM301.074 43.4174C300.03 44.1956 299.195 45.5621 298.587 47.5171C297.98 49.472 297.657 52.1482 297.619 55.5836H311.949C311.93 52.1672 311.627 49.472 311.076 47.5171C310.526 45.5621 309.748 44.1956 308.742 43.4174C307.736 42.6392 306.483 42.2406 304.984 42.2406C303.427 42.2406 302.118 42.6392 301.074 43.4174Z" fill="#1B1A21"/>
<path d="M334.949 81.7571C332.425 81.3585 330.147 80.7702 328.078 80.0299V71.2612C332.975 72.8555 337.606 73.6337 341.991 73.6337C345.806 73.6337 348.634 72.8935 350.513 71.413C352.373 69.9326 353.303 67.7878 353.303 64.9408C353.303 63.3465 353.018 62.0179 352.449 60.917C351.879 59.8162 350.93 58.8482 349.602 57.9941C348.273 57.14 346.47 56.3239 344.155 55.5457L340.434 54.293C331.324 51.1803 326.788 45.4104 326.788 37.0022C326.788 33.2442 327.604 30.0176 329.255 27.3224C330.906 24.6272 333.355 22.5584 336.619 21.1159C339.884 19.6924 343.927 18.9712 348.71 18.9712C350.873 18.9712 353.037 19.1041 355.163 19.3888C357.289 19.6735 359.168 20.0531 360.781 20.5655V29.2963C357.422 28.2334 353.683 27.702 349.583 27.702C341.289 27.702 337.132 30.549 337.132 36.224C337.132 37.7614 337.398 39.0331 337.91 40.058C338.423 41.0829 339.296 42.013 340.491 42.8101C341.706 43.6263 343.376 44.3855 345.521 45.1067L349.241 46.3594C353.967 47.9537 357.554 50.1554 360.003 52.9834C362.432 55.8114 363.666 59.4936 363.666 64.0298C363.666 67.8448 362.831 71.1283 361.142 73.8614C359.452 76.5946 357.004 78.7013 353.777 80.1628C350.551 81.6243 346.66 82.3455 342.124 82.3455C339.846 82.3645 337.455 82.1747 334.949 81.7571Z" fill="#1B1A21"/>
<path d="M393.388 73.1404V81.5675C391.187 82.099 388.909 82.3647 386.536 82.3647C381.772 82.3647 378.166 81.112 375.68 78.5877C373.193 76.0633 371.96 72.0585 371.96 66.5923V44.082H364.994V36.0155H371.96L373.763 19.7686H382.076V36.0155H393.009V44.082H382.076V65.3776C382.076 67.4654 382.304 69.1166 382.778 70.3124C383.253 71.5081 383.993 72.3622 384.999 72.8747C386.005 73.3871 387.353 73.6529 389.042 73.6529C390.067 73.6529 391.509 73.482 393.388 73.1404Z" fill="#1B1A21"/>
<path d="M401.057 76.7084C397.906 72.9124 396.331 66.9907 396.331 58.9811C396.331 43.1897 402.424 35.313 414.59 35.313C420.436 35.313 424.934 37.2489 428.104 41.1209C431.254 44.9928 432.849 50.9146 432.849 58.9052C432.849 74.5827 426.756 82.4214 414.609 82.4214C408.725 82.4214 404.208 80.5044 401.057 76.7084ZM418.917 73.349C420.037 72.4569 420.91 70.8626 421.537 68.585C422.163 66.3074 422.448 63.1377 422.448 59.057C422.448 54.8814 422.144 51.6168 421.537 49.2823C420.929 46.9477 420.056 45.3155 418.898 44.4044C417.741 43.4934 416.317 43.0189 414.59 43.0189C412.844 43.0189 411.382 43.4744 410.243 44.3854C409.105 45.2965 408.232 46.8908 407.624 49.2064C407.017 51.5219 406.713 54.7106 406.713 58.8103C406.713 62.9669 407.017 66.1935 407.624 68.4901C408.232 70.8056 409.105 72.4 410.243 73.311C411.363 74.2221 412.825 74.6776 414.609 74.6776C416.355 74.6965 417.778 74.241 418.917 73.349Z" fill="#1B1A21"/>
<path d="M439.889 36.0153H448.241L449.038 42.2787H449.531C450.651 39.9441 452.151 38.217 454.067 37.1161C455.965 36.0153 458.129 35.4648 460.559 35.4648C461.527 35.4648 462.495 35.5408 463.444 35.7116V45.1447C462.495 44.9738 461.337 44.8979 459.932 44.8979C457.901 44.8979 455.984 45.3724 454.162 46.3024C452.359 47.2325 450.955 48.5231 449.987 50.1744V81.5673H439.889V36.0153Z" fill="#1B1A21"/>
<path d="M499.981 62.0368H476.142C476.256 65.1306 476.712 67.541 477.528 69.3062C478.344 71.0523 479.578 72.305 481.248 73.0642C482.918 73.8234 485.139 74.184 487.929 74.184C490.795 74.184 494.116 73.6526 497.874 72.5897V80.8081C495.843 81.3585 493.945 81.776 492.18 82.0228C490.415 82.2695 488.593 82.4024 486.733 82.4024C481.893 82.4024 477.945 81.6052 474.89 79.9919C471.834 78.3786 469.575 75.8543 468.095 72.3999C466.614 68.9266 465.874 64.3524 465.874 58.6394C465.874 50.8386 467.411 45.0117 470.486 41.1208C473.561 37.2299 477.907 35.2939 483.544 35.2939C494.515 35.2939 500 43.1707 500 58.9241V62.0368H499.981ZM479.578 43.4174C478.534 44.1956 477.699 45.5621 477.091 47.5171C476.484 49.472 476.161 52.1482 476.123 55.5836H490.453C490.434 52.1672 490.131 49.472 489.58 47.5171C489.03 45.5621 488.251 44.1956 487.246 43.4174C486.24 42.6392 484.987 42.2406 483.487 42.2406C481.931 42.2406 480.622 42.6392 479.578 43.4174Z" fill="#1B1A21"/>
<path d="M54.664 0C65.8699 3.11664 76.0796 10.9706 80.313 20.5698C86.7875 36.1531 85.2933 55.8502 78.1963 67.5688C72.2198 77.168 63.0061 82.2794 52.4228 82.1547C35.9876 82.03 22.6651 68.9401 22.5406 52.4842C22.5406 36.0284 35.4895 22.4398 52.4228 22.4398C55.162 22.4398 59.1116 22.8197 63.594 24.6897C63.594 24.6897 60.3715 22.781 52.0955 21.4989C28.3142 18.3823 0.253376 36.4024 6.72787 77.9161C15.6925 93.8733 32.8748 104.719 52.4228 104.595C81.1845 104.47 104.717 80.908 104.592 51.9856C104.592 24.3098 82.0561 0.747994 54.664 0Z" fill="#1B1A21"/>
<path d="M74.2119 22.0659C70.2276 13.7133 62.01 7.10603 51.9247 4.48805C49.6835 3.86472 47.3178 3.61539 44.7031 3.49072C40.8434 3.49072 37.1081 3.9894 33.2483 4.98673C23.661 7.85404 16.9375 13.464 12.9532 17.8273C7.84835 23.6866 4.48659 29.7952 2.49444 35.9038C2.49444 36.0285 2.36993 36.1531 2.36993 36.4025C2.24542 36.9011 1.74738 38.3971 1.74738 38.7711C1.62287 39.0205 1.62287 39.3944 1.49836 39.6438C1.37385 40.1424 1.24935 40.6411 1.12484 41.1398C1.12484 41.2644 1.12484 41.3891 1.00033 41.5138C-2.23692 57.5956 3.14093 72.0275 6.37817 77.3881C7.18788 78.729 7.85279 79.8476 8.51915 80.8739C1.1731 40.9809 22.2914 21.9413 46.3218 21.4426C58.8972 21.1933 71.4727 26.3045 77.5736 36.5271C77.2001 30.9172 76.8266 27.8005 74.2119 22.0659Z" fill="#1B1A21"/>
</svg>
